<svg id="Layer_1" data-name="Layer 1" xmlns="http://www.w3.org/2000/svg" viewBox="0 0 1920 1080"><defs><style>.cls-1{fill:#ff5757;}</style></defs><title>vector file</title><path class="cls-1" d="M988.94,270.23v142h-21.8v-142H976V167.67a2.08,2.08,0,0,1,2.08-2.08h0a2.08,2.08,0,0,1,2.08,2.08V270.23Z"/><polygon points="862.36 719.53 862.36 914.41 840.54 914.41 840.54 741.11 862.36 719.53"/><polygon points="826.37 755.12 826.37 914.4 804.54 914.4 804.54 776.69 826.37 755.12"/><polygon class="cls-1" points="1115.46 732.36 1115.46 914.41 949.01 914.41 949.05 836.67 985.21 836.67 985.21 434.04 970.88 434.04 970.88 814.28 949.05 814.66 949.05 412.21 1007.01 412.21 1007.01 858.49 970.88 858.49 970.88 892.59 1093.64 892.59 1093.64 710.53 1115.46 732.36"/><polygon points="934.67 892.58 934.67 914.4 876.69 914.4 876.69 594.16 934.65 536.2 934.65 744.79 912.83 745.17 912.83 588.83 898.5 603.18 898.5 892.58 912.83 892.58 912.83 789.65 905.17 789.65 905.17 767.83 934.65 767.83 934.65 892.58 934.67 892.58"/><path d="M1021.35,537.84V870.57h58V595.82Zm21.82,310.91V590.53l14.34,14.33V848.75Z"/></svg>