<svg id="eJATjzZvqdL1" xmlns="http://www.w3.org/2000/svg" xmlns:xlink="http://www.w3.org/1999/xlink" viewBox="575 160 760 760" shape-rendering="geometricPrecision" text-rendering="geometricPrecision"><path d="M988.94,270.23v142h-21.8v-142h8.86v-102.56c0-.55165.219142-1.080706.609218-1.470782s.919132-.609218,1.470782-.609218v0c.55165,0,1.080706.219142,1.470782.609218s.609218.919132.609218,1.470782v102.56Z" fill="#ff5757"/><polygon points="862.36,719.53 862.36,914.41 840.54,914.41 840.54,741.11 862.36,719.53"/><polygon points="826.37,755.12 826.37,914.4 804.54,914.4 804.54,776.69 826.37,755.12"/><polygon points="1115.46,732.36 1115.46,914.41 949.01,914.41 949.05,836.67 985.21,836.67 985.21,434.04 970.88,434.04 970.88,814.28 949.05,814.66 949.05,412.21 1007.01,412.21 1007.01,858.49 970.88,858.49 970.88,892.59 1093.64,892.59 1093.64,710.53 1115.46,732.36" fill="#ff5757"/><polygon points="934.67,892.58 934.67,914.4 876.69,914.4 876.69,594.16 934.65,536.2 934.65,744.79 912.83,745.17 912.83,588.83 898.5,603.18 898.5,892.58 912.83,892.58 912.83,789.65 905.17,789.65 905.17,767.83 934.65,767.83 934.65,892.58 934.67,892.58"/><path d="M1021.35,537.84v332.73h58v-274.75Zm21.82,310.91v-258.22l14.34,14.33v243.89Z"/></svg>
